<svg width="35" height="35" viewBox="0 0 35 35" fill="none" xmlns="http://www.w3.org/2000/svg">
<g clip-path="url(#clip0_1_14605)">
<path d="M17.5279 1.2832C8.51528 1.2832 1.18945 8.58696 1.18945 17.6218C1.18945 26.635 8.49312 33.9604 17.5279 33.9604C26.5409 33.9604 33.8663 26.6567 33.8663 17.6218C33.8663 8.58696 26.5409 1.2832 17.5279 1.2832ZM17.5279 23.0385C14.531 23.0385 12.0891 20.5965 12.0891 17.5997C12.0891 14.6028 14.531 12.1608 17.5279 12.1608C20.5247 12.1608 22.9666 14.6028 22.9666 17.5997C22.9666 20.6191 20.5251 23.0385 17.5279 23.0385Z" fill="#EDB66B"/>
<path d="M10.1536 22.9485C9.74985 22.9485 9.40993 22.7996 9.15466 22.5447C8.55946 21.9282 8.58074 20.8659 8.62328 19.6121C8.64455 18.5281 8.6871 17.168 8.177 16.637C8.07063 16.5094 7.85835 16.3609 7.36952 16.3396H7.28442C6.75305 16.3396 6.37058 16.446 6.15785 16.6796C5.73284 17.1259 5.79666 18.1248 5.8392 18.9323C5.90302 19.7823 5.94557 20.5264 5.45674 20.9515C5.09554 21.2914 4.60671 21.4616 4.07533 21.4616C3.03385 21.4616 1.80136 20.7392 1.39762 19.8891C1.35552 19.8036 1.33424 19.7398 1.33424 19.6547L1.31297 19.442C1.24915 18.6345 1.16406 17.7419 1.16406 17.3594C1.16406 8.34849 8.49564 1.03809 17.4847 1.03809C26.4738 1.03809 33.8058 8.36976 33.8058 17.3594C33.8058 17.7206 33.7846 18.1031 33.7633 18.4647C33.6782 19.5909 32.7644 20.4622 31.6595 20.4622C31.426 20.4622 31.1707 20.4196 30.9371 20.3345C29.8744 19.9308 28.9818 19.1658 28.1318 18.4217C26.8993 17.3377 25.7302 16.3392 24.0727 16.2966C23.0312 16.2754 22.0961 15.7014 21.6077 14.8089C20.4177 12.5987 20.2688 12.5136 17.2724 12.5136C11.7473 12.5136 11.7473 15.6163 11.7473 16.6366C11.7473 17.2105 11.7898 17.8265 11.8111 18.4217C11.9175 20.1644 12.0026 21.6942 11.2585 22.4809C11.0249 22.7787 10.6212 22.9485 10.1536 22.9485Z" fill="#86522C"/>
<path d="M17.5281 1.73961C26.156 1.73961 33.1689 8.73136 33.1689 17.3806C33.1689 17.7418 33.1477 18.103 33.1264 18.4434C33.0626 19.2083 32.4253 19.7823 31.7241 19.7823C31.5752 19.7823 31.4055 19.761 31.2566 19.6972C28.8763 18.8046 27.3251 15.6806 24.159 15.6172C23.3941 15.5959 22.65 15.1709 22.2888 14.4906C20.9499 11.983 20.5036 11.8341 17.3371 11.8341C13.8093 11.8341 11.1104 13.0241 11.1104 16.637C11.1104 19.2296 11.7694 22.2473 10.1752 22.2473C8.07145 22.2473 10.9827 15.7444 7.41287 15.6593H7.30651C3.84259 15.6593 5.75537 19.7823 5.03298 20.4621C4.77771 20.6961 4.45906 20.7808 4.11913 20.7808C3.26911 20.7808 2.33399 20.1856 2.07872 19.6121C2.03617 19.1658 1.92981 17.8269 1.92981 17.3806C1.88726 8.73136 8.9002 1.73961 17.5281 1.73961ZM17.5281 0.336914C8.13526 0.336914 0.505859 7.96641 0.505859 17.3594C0.505859 17.7631 0.590951 18.677 0.654769 19.5057L0.676042 19.718C0.697315 19.8882 0.73986 20.0579 0.803679 20.2069C1.33506 21.3117 2.78028 22.1622 4.09786 22.1622C4.79898 22.1622 5.43672 21.9282 5.94682 21.4819C6.69049 20.8233 6.62667 19.8457 6.56285 18.8893C6.54158 18.4004 6.45648 17.4015 6.69049 17.1679C6.73303 17.1254 6.92404 17.0403 7.30651 17.0403H7.37033C7.43415 17.0403 7.62516 17.0403 7.68898 17.1041C8.00763 17.4227 7.96508 18.8254 7.94381 19.5904C7.90126 20.9293 7.87999 22.2043 8.6662 23.0118C9.04867 23.4155 9.58004 23.6283 10.1752 23.6283C10.8343 23.6283 11.4077 23.3943 11.8327 22.9271C12.7679 21.9282 12.6828 20.2707 12.5764 18.3579C12.5339 17.7839 12.5126 17.1679 12.5126 16.6152C12.5126 15.595 12.5126 13.1938 17.3366 13.1938C20.0356 13.1938 20.0356 13.1938 21.0554 15.1279C21.6506 16.2541 22.8405 16.9556 24.1156 16.9769C25.5182 16.9982 26.5385 17.8903 27.7284 18.9318C28.6423 19.718 29.5774 20.5472 30.746 20.9722C31.0434 21.0786 31.3838 21.1424 31.7024 21.1424C33.1689 21.1424 34.4014 19.9946 34.4861 18.5072C34.5073 18.1248 34.5286 17.721 34.5286 17.3385C34.5508 7.98769 26.9214 0.336914 17.5281 0.336914Z" fill="#4C2F1B"/>
<path d="M19.8729 32.6762C19.9912 32.9856 20.4769 33.0871 20.9578 32.9027C21.4386 32.7188 21.7325 32.319 21.6141 32.0097C21.4958 31.7003 21.0101 31.5993 20.5292 31.7832C20.0484 31.9676 19.7545 32.3673 19.8729 32.6762Z" fill="#E3A358"/>
<path d="M28.831 26.9525C29.038 27.4931 29.5414 27.8734 30.1517 27.9501C30.762 28.0263 31.386 27.7874 31.7892 27.3234C32.1925 26.8589 32.3135 26.2398 32.1066 25.6991C31.8996 25.158 31.3961 24.7782 30.7859 24.7015C30.1756 24.6253 29.5512 24.8641 29.1479 25.3282C28.7446 25.7926 28.624 26.4118 28.831 26.9525Z" fill="#E3A358"/>
<path d="M13.3621 33.6976C13.5691 34.2383 14.0726 34.6185 14.6828 34.6952C15.2931 34.7714 15.9175 34.5325 16.3208 34.0685C16.7241 33.6041 16.8451 32.9849 16.6381 32.4442C16.4312 31.9035 15.9277 31.5233 15.3175 31.4466C14.7072 31.3704 14.0828 31.6093 13.6795 32.0733C13.2762 32.5377 13.1552 33.1569 13.3621 33.6976Z" fill="#E3A358"/>
<path d="M9.95714 31.1998C10.282 31.2733 10.6073 31.2304 10.8112 31.0863C11.0146 30.9423 11.0651 30.7198 10.9437 30.5018C10.8222 30.2841 10.5475 30.1042 10.2226 30.0306C9.89775 29.9566 9.57245 30.0001 9.36859 30.1441C9.16517 30.2881 9.11465 30.5106 9.23608 30.7282C9.35707 30.9463 9.63228 31.1258 9.95714 31.1998Z" fill="#E3A358"/>
<path d="M16.9112 24.6018C17.182 24.6635 17.4461 24.6586 17.6043 24.5886C17.7625 24.5185 17.7904 24.3949 17.6783 24.2637C17.5658 24.1325 17.3295 24.0137 17.0588 23.9521C16.788 23.8905 16.5238 23.8954 16.3656 23.9654C16.2074 24.0354 16.1795 24.1591 16.2916 24.2903C16.4042 24.4219 16.6404 24.5402 16.9112 24.6018Z" fill="#E3A358"/>
<path d="M4.68281 26.1244C4.89199 26.1718 5.10162 26.1413 5.23369 26.0446C5.36576 25.9476 5.39899 25.7991 5.32232 25.6551C5.24521 25.5106 5.06927 25.3927 4.86053 25.3453C4.65134 25.2979 4.44172 25.328 4.31009 25.4251C4.17802 25.5217 4.14434 25.6706 4.22146 25.8146C4.29768 25.9587 4.47407 26.077 4.68281 26.1244Z" fill="#E3A358"/>
<path d="M13.1024 23.037C13.378 23.224 13.6705 23.341 13.87 23.3437C14.0694 23.3463 14.1456 23.2342 14.0694 23.0498C13.9936 22.865 13.7769 22.6363 13.5012 22.4493C13.2256 22.2623 12.9331 22.1453 12.7332 22.1426C12.5338 22.14 12.458 22.2521 12.5338 22.4365C12.61 22.6213 12.8267 22.85 13.1024 23.037Z" fill="#E3A358"/>
<path d="M17.5287 34.9057C7.99763 34.9057 0.244141 27.1521 0.244141 17.6217C0.244141 8.09051 7.99763 0.336914 17.5287 0.336914C27.0594 0.336914 34.8129 8.09051 34.8129 17.6217C34.8129 27.1521 27.059 34.9057 17.5287 34.9057ZM17.5287 2.22845C9.0533 2.22845 2.15825 9.12403 2.15825 17.5991C2.15825 26.0742 9.05374 32.9698 17.5287 32.9698C26.0037 32.9698 32.8992 26.0747 32.8992 17.5991C32.8992 9.12358 26.0037 2.22845 17.5287 2.22845ZM17.5287 24.0059C14.0081 24.0059 11.1442 21.142 11.1442 17.6217C11.1442 14.0891 14.0081 11.215 17.5287 11.215C21.0489 11.215 23.9128 14.0789 23.9128 17.5996C23.9128 21.1318 21.0489 24.0059 17.5287 24.0059ZM17.5287 13.1282C15.0633 13.1282 13.0579 15.1341 13.0579 17.5991C13.0579 20.0641 15.0638 22.07 17.5287 22.07C19.9937 22.07 21.9996 20.0641 21.9996 17.5991C21.9991 15.1341 19.9937 13.1282 17.5287 13.1282Z" fill="#4C2F1B"/>
<path d="M18.4611 8.6978L14.7317 6.23367C14.5762 6.14459 14.554 5.94515 14.6426 5.78959L15.0645 5.16824C15.1532 5.01268 15.3531 4.99052 15.5086 5.07916L19.238 7.54329C19.3936 7.63237 19.4157 7.83225 19.3266 7.98737L18.9047 8.60916C18.8165 8.76428 18.6167 8.78644 18.4611 8.6978Z" fill="#DB79AD"/>
<path d="M3.65434 12.6042L4.63112 10.4733C4.6976 10.3178 4.89747 10.2513 5.05303 10.3178L5.74129 10.6284C5.89685 10.6949 5.96333 10.8948 5.89685 11.0504L4.92008 13.1812C4.85315 13.3368 4.65372 13.4032 4.49816 13.3368L3.8099 13.0261C3.65434 12.937 3.56571 12.7597 3.65434 12.6042ZM27.8956 12.4265L26.0307 10.9834C25.8977 10.8726 25.8751 10.6728 25.9642 10.5394L26.4304 9.94017C26.5412 9.80721 26.7411 9.78461 26.8745 9.87369L28.7394 11.3167C28.8724 11.4279 28.895 11.6274 28.8059 11.7608L28.3397 12.3604C28.2289 12.5155 28.029 12.5373 27.8956 12.4265Z" fill="#F6B173"/>
<path d="M23.2109 9.40767L21.9234 6.49946C21.857 6.3439 21.9234 6.14403 22.079 6.07755L22.7668 5.76687C22.9224 5.70039 23.1223 5.76687 23.1887 5.92243L24.4762 8.83064C24.5427 8.9862 24.4762 9.18563 24.3206 9.25255L23.6324 9.56323C23.4777 9.62971 23.3 9.56279 23.2109 9.40767ZM8.91467 14.8243L7.62722 11.9161C7.56075 11.7606 7.62722 11.5611 7.78278 11.4942L8.47104 11.1835C8.6266 11.1171 8.82604 11.1835 8.89296 11.3391L10.1804 14.2473C10.2469 14.4029 10.1804 14.6027 10.0248 14.6692L9.33658 14.9799C9.15931 15.0685 8.98159 14.9799 8.91467 14.8243Z" fill="#F7E774"/>
<path d="M9.51492 8.80848L10.8471 5.92243C10.9136 5.76687 11.1135 5.70039 11.269 5.76687L11.9573 6.07755C12.1129 6.14403 12.1793 6.3439 12.1129 6.49946L10.7807 9.38551C10.7142 9.54107 10.5143 9.60755 10.3587 9.54107L9.67048 9.2304C9.51492 9.16392 9.44844 8.9862 9.51492 8.80848ZM29.5606 16.0458L30.0046 12.8934C30.0268 12.7156 30.1823 12.6048 30.3601 12.627L31.1148 12.7378C31.2925 12.76 31.4033 12.9155 31.3812 13.0928L30.9371 16.2452C30.9149 16.4225 30.7594 16.5337 30.5821 16.5115L29.8273 16.4008C29.6492 16.3786 29.5384 16.2235 29.5606 16.0458Z" fill="#EC6A69"/>
<path d="M7.8632 26.9096C8.01831 26.9894 8.19071 27.0062 8.31569 26.9544C8.44022 26.9025 8.49828 26.7895 8.4677 26.6579C8.43712 26.5262 8.32233 26.3964 8.16722 26.3166C8.01211 26.2368 7.83971 26.22 7.71473 26.2719C7.5902 26.3237 7.53214 26.4367 7.56272 26.5684C7.5933 26.6995 7.70764 26.8298 7.8632 26.9096Z" fill="#E3A358"/>
<path d="M24.1861 27.689C24.2255 27.7927 24.3891 27.8401 24.6137 27.8131C24.8389 27.7865 25.0919 27.6894 25.2772 27.5591C25.4624 27.4288 25.5524 27.2843 25.513 27.1806C25.4731 27.0769 25.31 27.0295 25.0849 27.0561C24.8597 27.0827 24.6067 27.1793 24.4214 27.31C24.2362 27.4408 24.1462 27.5853 24.1861 27.689Z" fill="#E3A358"/>
<path d="M14.2212 26.5245C14.4317 26.6801 14.6817 26.7488 14.8767 26.7049C15.0717 26.661 15.1825 26.5113 15.1665 26.3118C15.151 26.1128 15.0118 25.8939 14.8013 25.7383C14.5908 25.5828 14.3409 25.5141 14.1459 25.5579C13.9508 25.6018 13.8401 25.7516 13.856 25.9511C13.8711 26.1509 14.0107 26.3694 14.2212 26.5245Z" fill="#E3A358"/>
<path d="M20.4416 29.504C20.4668 29.6861 20.7137 29.8022 20.9929 29.7637C21.2725 29.7251 21.4782 29.5461 21.4529 29.3639C21.4276 29.1818 21.1808 29.0652 20.9016 29.1042C20.6219 29.1428 20.4163 29.3218 20.4416 29.504Z" fill="#E3A358"/>
</g>
<defs>
<clipPath id="clip0_1_14605">
<rect width="34.5688" height="34.5688" fill="white" transform="translate(0.244141 0.336914)"/>
</clipPath>
</defs>
</svg>
