<svg width="36" height="36" viewBox="0 0 36 36" fill="none" xmlns="http://www.w3.org/2000/svg">
<g clip-path="url(#clip0_1_14645)">
<path d="M1.46094 20.9238V24.8014H32.1918C33.0557 24.8014 33.7148 20.8555 33.7148 20.8555L1.46094 20.9238Z" fill="#F2C05A"/>
<path d="M1.46107 25.7501C0.928481 25.7501 0.510742 25.3334 0.510742 24.8016V20.9237C0.510742 20.4009 0.937046 19.9756 1.46107 19.9756L33.7379 19.9072C34.0061 19.9072 34.2837 20.0342 34.4449 20.2308C34.6302 20.4526 34.7015 20.7221 34.6474 20.9917C33.8598 25.7501 32.6649 25.7501 32.2153 25.7501H1.46107ZM31.9264 23.876L31.9903 23.7482C32.1343 23.4608 32.3005 22.9508 32.5295 22.0944L32.6073 21.8035L2.43436 21.8726V23.876H2.66562H31.9264Z" fill="#4C2F1B"/>
<path d="M25.4409 1.73895C24.7818 1.3987 23.9634 1.48959 23.418 1.9887L1.4834 20.9242H5.57514V31.832C5.57514 33.1247 6.62046 34.1676 7.91611 34.1676C9.21176 34.1676 10.2571 33.1247 10.2571 31.832V20.9242H12.6892V26.0719C12.6892 27.387 13.78 28.4757 15.0986 28.4757C16.4169 28.4757 17.5081 27.3874 17.5081 26.0719V20.9242H20.9859C21.327 22.2169 22.4864 23.1693 23.8727 23.1693C25.2595 23.1693 26.4411 22.2169 26.7595 20.9242L33.7602 20.9017C35.9646 8.36101 28.4184 3.2359 25.4409 1.73895Z" fill="#FFDE8A"/>
<path d="M18.2132 9.99305C19.554 9.99305 20.6226 8.92725 20.6226 7.58916C20.6226 6.6593 20.0998 5.8883 19.3496 5.48047L15.9629 8.40561C16.3039 9.33547 17.1674 9.99305 18.2132 9.99305Z" fill="#FF5C5C"/>
<path d="M18.2132 10.4691C17.0083 10.4691 15.9174 9.69813 15.5082 8.56436C15.4401 8.38297 15.4853 8.17905 15.6445 8.0431L19.0312 5.11758C19.1675 4.98163 19.3948 4.95872 19.5537 5.04961C20.5083 5.54872 21.0767 6.52363 21.0767 7.56691C21.1 9.17649 19.8044 10.4691 18.2132 10.4691ZM16.531 8.54183C16.872 9.15435 17.5086 9.53966 18.2132 9.53966C19.2815 9.53966 20.1454 8.67816 20.1454 7.61197C20.1454 6.99983 19.8499 6.43275 19.3722 6.06997L16.531 8.54183Z" fill="#4C2F1B"/>
<path d="M26.1919 12.0568C25.919 13.2135 26.6692 14.3928 27.8282 14.6421C28.6465 14.8235 29.4419 14.5287 29.9422 13.9391L28.033 10.3789C27.1465 10.4923 26.3963 11.127 26.1919 12.0568Z" fill="#FF5C5C"/>
<path d="M28.3047 15.1644C28.1229 15.1644 27.9185 15.1418 27.7367 15.0964C26.3274 14.7791 25.4183 13.373 25.7364 11.9444C25.9863 10.8786 26.8728 10.0622 27.9866 9.92624C28.1684 9.90371 28.3732 9.99421 28.4639 10.1756L30.3731 13.7133C30.4642 13.8947 30.4413 14.0986 30.305 14.2349C29.7822 14.8241 29.0549 15.1644 28.3047 15.1644ZM26.6454 12.1484C26.5543 12.602 26.6228 13.0553 26.8724 13.4181C27.1227 13.8034 27.4864 14.0757 27.9407 14.1665C28.441 14.28 28.9634 14.144 29.3726 13.8263L27.8044 10.9012C27.2138 11.1051 26.7817 11.5584 26.6454 12.1484Z" fill="#4C2F1B"/>
<path d="M7.89401 35.0933C6.07901 35.0933 4.60194 33.6201 4.60194 31.8089V21.8496H1.4613C1.05641 21.8496 0.714202 21.6092 0.58962 21.2367C0.440121 20.8619 0.549909 20.4486 0.858249 20.195L22.7971 1.25594C23.3056 0.823247 23.9503 0.583984 24.6117 0.583984C25.0474 0.583984 25.4675 0.683418 25.8607 0.879955C28.5244 2.21959 37.0333 7.63018 34.6694 20.9974C34.5974 21.446 34.1971 21.7816 33.7377 21.7816L27.3911 21.8049L27.3268 21.9292C26.6498 23.237 25.3176 24.0496 23.8502 24.0496C22.3833 24.0496 21.051 23.2374 20.3736 21.9292L20.3086 21.8041H18.4364V26.0037C18.4364 27.8397 16.9394 29.3331 15.0991 29.3331C13.2588 29.3331 11.7623 27.8397 11.7623 26.0041V21.8045H11.2083V31.7638C11.1873 33.5987 9.70045 35.0933 7.89401 35.0933ZM24.5884 2.48216C24.3742 2.48216 24.1761 2.55751 24.0149 2.70045L3.99966 19.9759H5.55265C5.81622 19.9759 6.04592 20.0695 6.19892 20.2396C6.38618 20.4268 6.4804 20.6607 6.4804 20.9244V31.8322C6.4804 32.6098 7.1146 33.2425 7.89362 33.2425C8.68627 33.2425 9.30685 32.623 9.30685 31.8322V20.924C9.30685 20.4012 9.73315 19.9759 10.2572 19.9759H12.6892C12.9524 19.9759 13.1821 20.0695 13.3355 20.2396C13.5228 20.4268 13.617 20.6607 13.617 20.9244V26.072C13.617 26.8745 14.2714 27.5274 15.0758 27.5274C15.8801 27.5274 16.5345 26.8745 16.5345 26.072V20.9015C16.5345 20.3783 16.9608 19.953 17.4849 19.953H20.9627C21.3971 19.953 21.7639 20.2392 21.8752 20.6649C22.1076 21.5676 22.9198 22.1984 23.8494 22.1984C24.7791 22.1984 25.5913 21.5676 25.8237 20.6645C25.935 20.2396 26.3018 19.9534 26.7359 19.9534L32.9381 19.9301L32.9657 19.732C34.514 8.67385 27.9116 4.05096 25.0011 2.57654C24.8601 2.51245 24.7242 2.48216 24.5884 2.48216Z" fill="#4C2F1B"/>
<path d="M33.7371 20.8552C36.0103 8.08807 28.1002 3.03093 25.2589 1.64779C24.6905 1.37552 24.0084 1.4664 23.5311 1.87463L21.8037 3.37157C25.577 6.18329 31.9186 11.3768 29.9864 20.8785L33.7371 20.8552Z" fill="#FFB07B"/>
<path d="M29.9876 21.8044C29.7115 21.8044 29.4378 21.6743 29.2564 21.4564C29.0754 21.24 29.0003 20.9479 29.0552 20.6741C30.7191 12.4669 26.0259 7.6984 21.2158 4.11646C20.9885 3.95915 20.8507 3.6927 20.8308 3.38003C20.8133 3.09804 20.932 2.82887 21.157 2.64204L22.888 1.14199C23.3501 0.743867 23.9344 0.524414 24.5332 0.524414C24.914 0.524414 25.2936 0.615691 25.6319 0.788146C28.3524 2.11186 37.0288 7.47662 34.624 21.0198C34.5519 21.4688 34.1517 21.8044 33.6927 21.8044H29.9876ZM24.5465 2.42259C24.3896 2.42259 24.2354 2.4793 24.1112 2.58261L23.2851 3.31477L23.5031 3.48529C25.6833 5.19353 32.318 10.392 31.1217 19.6472L31.0882 19.9074H32.9168L32.9444 19.7085C34.5216 8.43949 27.784 3.90866 24.8143 2.48357C24.7353 2.44434 24.6418 2.42259 24.5465 2.42259Z" fill="#4C2F1B"/>
<path d="M29.9869 20.8555C29.9869 20.8555 29.7821 23.3499 28.873 24.8014H32.2142C32.2142 24.8014 33.3961 24.1663 33.7372 20.8555H29.9869Z" fill="#E2803D"/>
<path d="M28.8734 25.7497C28.5234 25.7497 28.2178 25.5667 28.0551 25.2603C27.8849 24.9577 27.8916 24.5961 28.0695 24.3114C28.7239 23.2479 28.9933 21.3598 29.0362 20.7819C29.0716 20.3037 29.4796 19.9297 29.9647 19.9297H33.715C33.9934 19.9297 34.2425 20.0392 34.3998 20.2307C34.598 20.4486 34.6801 20.698 34.6447 20.9609C34.2593 24.605 32.8982 25.4984 32.6292 25.6405C32.5202 25.7116 32.3656 25.7497 32.2146 25.7497H28.8734ZM30.8056 21.9894C30.7157 22.4384 30.6036 22.9974 30.4252 23.5769L30.3334 23.8756H31.8579L31.9272 23.7769C32.0837 23.5536 32.3796 23.037 32.5996 22.0865L32.665 21.8038H30.843L30.8056 21.9894Z" fill="#4C2F1B"/>
<path d="M11.9395 16.1163C11.9395 16.9805 12.6414 17.6808 13.5076 17.6808C14.3739 17.6808 15.0758 16.9805 15.0758 16.1163C15.0758 15.2521 14.3739 14.5518 13.5076 14.5518C12.6414 14.5518 11.9395 15.2521 11.9395 16.1163Z" fill="#FF5C5C"/>
<path d="M13.5078 18.157C12.3939 18.157 11.4619 17.2501 11.4619 16.1163C11.4619 14.9825 12.371 14.0752 13.5078 14.0752C14.6442 14.0752 15.5533 14.9821 15.5533 16.1163C15.5533 17.2497 14.6442 18.157 13.5078 18.157ZM13.5078 15.0276C12.8942 15.0276 12.4169 15.5267 12.4169 16.1159C12.4169 16.7055 12.9168 17.2042 13.5078 17.2042C14.0988 17.2042 14.5987 16.7051 14.5987 16.1159C14.5987 15.5263 14.1213 15.0276 13.5078 15.0276Z" fill="#4C2F1B"/>
<path d="M21.2366 17.6809H17.9407C17.7588 17.6809 17.5996 17.5221 17.5996 17.3407V16.5922C17.5996 16.4108 17.7588 16.252 17.9407 16.252H21.2366C21.4184 16.252 21.5777 16.4108 21.5777 16.5922V17.3407C21.6002 17.5221 21.441 17.6809 21.2366 17.6809Z" fill="#3DE25C"/>
<path d="M20.8723 18.1573H18.3265C17.6674 18.1573 17.1445 17.6356 17.1445 16.978C17.1445 16.3205 17.6674 15.7988 18.3265 15.7988H20.8723C21.5314 15.7988 22.0542 16.3205 22.0542 16.978C22.0542 17.6356 21.5314 18.1573 20.8723 18.1573ZM18.3265 16.7283C18.1902 16.7283 18.0766 16.8417 18.0766 16.9777C18.0766 17.114 18.1902 17.2274 18.3265 17.2274H20.8723C21.0085 17.2274 21.1222 17.114 21.1222 16.9777C21.1222 16.8417 21.0085 16.7283 20.8723 16.7283H18.3265Z" fill="#4C2F1B"/>
<path d="M23.5085 14.2568L21.7581 12.3521C21.69 12.2841 21.69 12.1707 21.7581 12.1027L22.5535 11.3772C22.6216 11.3092 22.7353 11.3092 22.8038 11.3772L24.5542 13.2819C24.6223 13.3499 24.6223 13.4633 24.5542 13.5313L23.7588 14.2568C23.7129 14.3252 23.5766 14.3252 23.5085 14.2568Z" fill="#3DE25C"/>
<path d="M23.6682 14.7098H23.6231C23.3957 14.7098 23.1909 14.5964 23.0321 14.4375L21.532 12.8276C21.3728 12.6687 21.3047 12.4423 21.3047 12.2154C21.3047 11.989 21.4184 11.7847 21.5776 11.6258L22.0775 11.1721C22.2367 11.0133 22.4641 10.9453 22.6914 10.9453C22.9188 10.9453 23.1232 11.0587 23.2824 11.2176L24.7825 12.8276C24.9417 12.9864 25.0098 13.2133 25.0098 13.4401C25.0098 13.6669 24.8961 13.8708 24.7369 14.0297L24.237 14.4834C24.0774 14.6189 23.8726 14.7098 23.6682 14.7098ZM22.3045 12.238L23.6682 13.712L24.0319 13.3717L22.6681 11.8977L22.3045 12.238Z" fill="#4C2F1B"/>
</g>
<defs>
<clipPath id="clip0_1_14645">
<rect width="34.5688" height="34.5688" fill="white" transform="translate(0.510742 0.524414)"/>
</clipPath>
</defs>
</svg>
