<svg width="112" height="72" viewBox="0 0 112 72" fill="none" xmlns="http://www.w3.org/2000/svg">
<path d="M49.752 19.088H29.016V30.032C29.912 28.9227 31.192 28.0267 32.856 27.344C34.52 26.6187 36.2907 26.256 38.168 26.256C41.5813 26.256 44.376 27.0027 46.552 28.496C48.728 29.9893 50.3067 31.9093 51.288 34.256C52.2693 36.56 52.76 39.0347 52.76 41.68C52.76 46.5867 51.352 50.5333 48.536 53.52C45.7627 56.5067 41.7947 58 36.632 58C31.768 58 27.8853 56.784 24.984 54.352C22.0827 51.92 20.44 48.7413 20.056 44.816H28.76C29.144 46.5227 29.9973 47.888 31.32 48.912C32.6853 49.936 34.4133 50.448 36.504 50.448C39.0213 50.448 40.92 49.6587 42.2 48.08C43.48 46.5013 44.12 44.4107 44.12 41.808C44.12 39.1627 43.4587 37.1573 42.136 35.792C40.856 34.384 38.9573 33.68 36.44 33.68C34.648 33.68 33.1547 34.128 31.96 35.024C30.7653 35.92 29.912 37.1147 29.4 38.608H20.824V11.216H49.752V19.088Z" fill="#272E35"/>
<path d="M62.5739 45.8182L58.8239 59.75H57.3068L61.0568 45.8182H62.5739ZM64.017 58V49.2727H65.6477V50.6932H65.7557C65.9375 50.2121 66.2348 49.8371 66.6477 49.5682C67.0606 49.2955 67.5549 49.1591 68.1307 49.1591C68.714 49.1591 69.2027 49.2955 69.5966 49.5682C69.9943 49.8409 70.2879 50.2159 70.4773 50.6932H70.5682C70.7765 50.2273 71.108 49.8561 71.5625 49.5795C72.017 49.2992 72.5587 49.1591 73.1875 49.1591C73.9792 49.1591 74.625 49.4072 75.125 49.9034C75.6288 50.3996 75.8807 51.1477 75.8807 52.1477V58H74.1818V52.3068C74.1818 51.7159 74.0208 51.2879 73.6989 51.0227C73.3769 50.7576 72.9924 50.625 72.5455 50.625C71.9924 50.625 71.5625 50.7955 71.2557 51.1364C70.9489 51.4735 70.7955 51.9072 70.7955 52.4375V58H69.1023V52.1989C69.1023 51.7254 68.9545 51.3447 68.6591 51.0568C68.3636 50.7689 67.9792 50.625 67.5057 50.625C67.1837 50.625 66.8864 50.7102 66.6136 50.8807C66.3447 51.0473 66.1269 51.2803 65.9602 51.5795C65.7973 51.8788 65.7159 52.2254 65.7159 52.6193V58H64.017ZM81.8338 58.1761C81.0156 58.1761 80.3016 57.9886 79.6918 57.6136C79.0819 57.2386 78.6084 56.714 78.2713 56.0398C77.9342 55.3655 77.7656 54.5777 77.7656 53.6761C77.7656 52.7708 77.9342 51.9792 78.2713 51.3011C78.6084 50.6231 79.0819 50.0966 79.6918 49.7216C80.3016 49.3466 81.0156 49.1591 81.8338 49.1591C82.652 49.1591 83.366 49.3466 83.9759 49.7216C84.5857 50.0966 85.0592 50.6231 85.3963 51.3011C85.7334 51.9792 85.902 52.7708 85.902 53.6761C85.902 54.5777 85.7334 55.3655 85.3963 56.0398C85.0592 56.714 84.5857 57.2386 83.9759 57.6136C83.366 57.9886 82.652 58.1761 81.8338 58.1761ZM81.8395 56.75C82.3698 56.75 82.8092 56.6098 83.1577 56.3295C83.5062 56.0492 83.7637 55.6761 83.9304 55.2102C84.1009 54.7443 84.1861 54.2311 84.1861 53.6705C84.1861 53.1136 84.1009 52.6023 83.9304 52.1364C83.7637 51.6667 83.5062 51.2898 83.1577 51.0057C82.8092 50.7216 82.3698 50.5795 81.8395 50.5795C81.3054 50.5795 80.8622 50.7216 80.5099 51.0057C80.1615 51.2898 79.902 51.6667 79.7315 52.1364C79.5649 52.6023 79.4815 53.1136 79.4815 53.6705C79.4815 54.2311 79.5649 54.7443 79.7315 55.2102C79.902 55.6761 80.1615 56.0492 80.5099 56.3295C80.8622 56.6098 81.3054 56.75 81.8395 56.75ZM89.4972 52.8182V58H87.7983V49.2727H89.429V50.6932H89.5369C89.7377 50.2311 90.0521 49.8598 90.4801 49.5795C90.9119 49.2992 91.4555 49.1591 92.1108 49.1591C92.7055 49.1591 93.2263 49.2841 93.6733 49.5341C94.1203 49.7803 94.4669 50.1477 94.7131 50.6364C94.9593 51.125 95.0824 51.7292 95.0824 52.4489V58H93.3835V52.6534C93.3835 52.0208 93.2188 51.5265 92.8892 51.1705C92.5597 50.8106 92.107 50.6307 91.5312 50.6307C91.1373 50.6307 90.7869 50.7159 90.4801 50.8864C90.1771 51.0568 89.9366 51.3068 89.7585 51.6364C89.5843 51.9621 89.4972 52.3561 89.4972 52.8182ZM101.435 49.2727V50.6364H96.6676V49.2727H101.435ZM97.946 47.1818H99.6449V55.4375C99.6449 55.767 99.6941 56.0152 99.7926 56.1818C99.8911 56.3447 100.018 56.4564 100.173 56.517C100.332 56.5739 100.505 56.6023 100.69 56.6023C100.827 56.6023 100.946 56.5928 101.048 56.5739C101.151 56.5549 101.23 56.5398 101.287 56.5284L101.594 57.9318C101.495 57.9697 101.355 58.0076 101.173 58.0455C100.991 58.0871 100.764 58.1098 100.491 58.1136C100.045 58.1212 99.6278 58.0417 99.2415 57.875C98.8551 57.7083 98.5426 57.4508 98.304 57.1023C98.0653 56.7538 97.946 56.3163 97.946 55.7898V47.1818ZM105.2 52.8182V58H103.501V46.3636H105.178V50.6932H105.286C105.49 50.2235 105.803 49.8504 106.223 49.5739C106.643 49.2973 107.193 49.1591 107.871 49.1591C108.469 49.1591 108.992 49.2822 109.439 49.5284C109.89 49.7746 110.238 50.142 110.484 50.6307C110.734 51.1155 110.859 51.7216 110.859 52.4489V58H109.161V52.6534C109.161 52.0133 108.996 51.517 108.666 51.1648C108.337 50.8087 107.878 50.6307 107.291 50.6307C106.89 50.6307 106.53 50.7159 106.212 50.8864C105.897 51.0568 105.649 51.3068 105.467 51.6364C105.289 51.9621 105.2 52.3561 105.2 52.8182Z" fill="#6E757C"/>
<path d="M13.608 25.176C13.608 26.008 13.392 26.792 12.96 27.528C12.544 28.248 11.92 28.848 11.088 29.328C10.272 29.792 9.304 30.064 8.184 30.144V32.088H6.648V30.12C5.048 29.976 3.76 29.496 2.784 28.68C1.808 27.848 1.304 26.728 1.272 25.32H4.872C4.968 26.472 5.56 27.168 6.648 27.408V22.824C5.496 22.536 4.568 22.248 3.864 21.96C3.16 21.672 2.552 21.208 2.04 20.568C1.528 19.928 1.272 19.056 1.272 17.952C1.272 16.56 1.768 15.424 2.76 14.544C3.768 13.664 5.064 13.16 6.648 13.032V11.088H8.184V13.032C9.72 13.16 10.944 13.624 11.856 14.424C12.784 15.224 13.304 16.328 13.416 17.736H9.792C9.744 17.272 9.576 16.872 9.288 16.536C9.016 16.184 8.648 15.936 8.184 15.792V20.328C9.384 20.632 10.328 20.928 11.016 21.216C11.72 21.488 12.328 21.944 12.84 22.584C13.352 23.208 13.608 24.072 13.608 25.176ZM4.776 17.784C4.776 18.312 4.936 18.744 5.256 19.08C5.576 19.4 6.04 19.664 6.648 19.872V15.72C6.072 15.8 5.616 16.016 5.28 16.368C4.944 16.72 4.776 17.192 4.776 17.784ZM8.184 27.456C8.792 27.344 9.264 27.096 9.6 26.712C9.952 26.328 10.128 25.864 10.128 25.32C10.128 24.792 9.96 24.368 9.624 24.048C9.288 23.728 8.808 23.464 8.184 23.256V27.456Z" fill="#272E35"/>
</svg>
