<svg width="51" height="51" viewBox="0 0 51 51" fill="none" xmlns="http://www.w3.org/2000/svg">
<g clip-path="url(#clip0_1_14628)">
<path d="M27.0583 26.3561C20.8859 32.135 13.4933 33.3824 12.672 33.5065C11.4074 33.694 10.1434 33.3853 9.11565 32.6241C8.08753 31.8626 7.41217 30.7484 7.22579 29.4841C6.99111 27.9271 7.53962 26.3494 8.69093 25.2715C9.39841 24.6091 10.2766 24.1846 11.238 24.0338C11.4402 24.0016 16.414 23.1678 20.4394 19.399C22.8101 17.1795 24.379 14.3763 25.1017 11.0691C25.3115 10.1155 25.7931 9.25964 26.5048 8.59333C27.6561 7.51541 29.2629 7.06802 30.801 7.40462C32.0507 7.67344 33.1177 8.42095 33.81 9.49694C34.5022 10.5729 34.7307 11.8583 34.4565 13.1043C33.3082 18.3763 30.8204 22.8338 27.0583 26.3561Z" fill="#F4A360"/>
<path d="M27.8245 27.175C21.6441 32.9614 14.2579 34.3942 12.8398 34.6229C11.2809 34.8558 9.72036 34.4679 8.44919 33.5297C7.1757 32.5897 6.34608 31.2131 6.11457 29.6525C5.82449 27.73 6.50102 25.7866 7.92474 24.4536C8.79559 23.6383 9.87533 23.1072 11.0473 22.9177C11.0858 22.9132 15.8538 22.1426 19.666 18.5734C21.8642 16.5154 23.3213 13.9076 23.9965 10.8223C24.2535 9.64572 24.8535 8.58963 25.7317 7.76741C27.1554 6.43445 29.1391 5.88723 31.0377 6.30312C32.5829 6.64232 33.903 7.5604 34.7533 8.88808C35.6058 10.2182 35.8903 11.8009 35.5542 13.3441C34.3552 18.8423 31.7546 23.4955 27.8245 27.175ZM9.4572 26.0904C8.58004 26.9117 8.15842 28.1169 8.32902 29.3145C8.62672 31.314 10.4965 32.6955 12.4974 32.3957C12.809 32.3498 20.2227 31.2134 26.2846 25.538C29.8707 22.1805 32.2494 17.9177 33.3543 12.8685C33.5648 11.9135 33.39 10.9328 32.8619 10.1087C32.3331 9.28392 31.5139 8.7146 30.5556 8.50619C29.3778 8.25024 28.1486 8.59001 27.2665 9.41585C26.7207 9.92691 26.3487 10.5815 26.1909 11.3089C25.4184 14.8454 23.7397 17.8441 21.2012 20.2208C17.0443 24.1127 11.9654 25.0515 11.3998 25.1459C10.6731 25.2557 9.99991 25.5823 9.4572 26.0904Z" fill="#4C2F1B"/>
<path d="M30.7128 29.6269C25.2798 34.7136 18.265 37.1887 13.5077 37.8126C12.2397 37.9803 10.9846 37.6417 9.96861 36.8615C8.95301 36.0811 8.30517 34.9562 8.14214 33.6845C7.94508 32.16 8.49616 30.6174 9.61978 29.5654C10.3514 28.8803 11.2646 28.4454 12.2604 28.3151C12.3382 28.302 14.3185 28.0294 16.8914 27.0673C19.77 25.9911 22.2244 24.5181 24.1832 22.6843C27.0215 20.0269 28.7295 16.6583 29.2537 12.6753C29.3985 11.58 29.9207 10.5587 30.7281 9.8028C31.7795 8.81843 33.2045 8.36106 34.6312 8.54699C35.8959 8.71169 37.0284 9.36046 37.8078 10.3771C38.5873 11.3938 38.9211 12.6476 38.7585 13.9166C37.936 20.1141 35.2301 25.3977 30.7128 29.6269Z" fill="#FF6C4A"/>
<path d="M31.488 30.4545C25.8664 35.7177 18.5915 38.2839 13.6578 38.9309C12.0894 39.1347 10.5366 38.7172 9.2853 37.7544C8.03759 36.7949 7.23673 35.4013 7.02966 33.8309C6.7827 31.9496 7.46527 30.0491 8.85498 28.748C9.75984 27.9009 10.8852 27.3665 12.1093 27.2025C12.1256 27.2003 14.0219 26.942 16.5011 26.0182C19.2432 24.993 21.5704 23.5963 23.418 21.8666C26.0586 19.3943 27.6466 16.2538 28.1376 12.5319C28.3118 11.1791 28.9584 9.91835 29.9593 8.98125C31.2614 7.76219 33.0183 7.20115 34.7791 7.44241C36.3411 7.64428 37.7326 8.44682 38.6998 9.70189C39.664 10.9531 40.0802 12.5058 39.8727 14.0732C39.0203 20.5319 36.1995 26.0433 31.488 30.4545ZM10.3907 30.3883C9.53074 31.1935 9.10698 32.3711 9.25652 33.5385C9.517 35.5439 11.3597 36.9619 13.3638 36.7006C17.9474 36.1006 24.711 33.7127 29.948 28.8096C34.2714 24.7618 36.8591 19.702 37.6389 13.77C37.7666 12.8005 37.5097 11.8388 36.9144 11.0632C36.3185 10.2861 35.4555 9.78806 34.4833 9.66105C33.3869 9.52016 32.2979 9.87059 31.4951 10.6222C30.8763 11.2016 30.4756 11.9836 30.367 12.8247C29.8099 17.0719 27.9884 20.6657 24.9534 23.5072C22.8867 25.4421 20.3074 26.9947 17.2865 28.1219C14.529 29.1497 12.4351 29.4267 12.4143 29.4291C11.6526 29.5304 10.9527 29.8622 10.3907 30.3883Z" fill="#4C2F1B"/>
<path d="M19.5802 31.6859C18.709 32.5015 17.6078 31.9584 16.8759 31.6018C16.11 31.2244 15.7084 31.0758 15.5205 31.2518C15.0648 31.6785 14.353 31.6553 13.9267 31.2C13.5004 30.7446 13.5241 30.0329 13.9799 29.6062C15.311 28.3599 16.9089 29.1053 17.8085 29.5448C17.7004 28.7245 17.595 27.4658 18.5745 26.5487C19.5618 25.6244 20.8423 25.7822 21.6912 25.8794C21.8454 25.9 22.0497 25.9256 22.2083 25.9349C22.2319 25.6881 22.2214 25.308 22.2144 25.0602C22.1896 24.1764 22.165 23.1727 22.8448 22.5363C23.5523 21.8739 24.6491 21.971 25.6181 22.0609C25.7339 22.0721 25.8649 22.0842 26.0005 22.0926C25.9973 22.0654 25.9942 22.0459 25.9872 22.0222C25.8564 21.1778 25.6635 19.8973 26.5746 19.0442C27.2902 18.3743 28.3247 18.4771 29.2353 18.577C29.3244 18.5836 29.4323 18.595 29.5403 18.6063C29.5328 18.5982 29.5334 18.5904 29.5294 18.5862C29.0918 17.6544 28.278 15.9278 29.5972 14.6927C30.053 14.266 30.7647 14.2891 31.1911 14.7444C31.6174 15.1998 31.5936 15.9115 31.1379 16.3382C31.0647 16.5566 31.4046 17.2802 31.5714 17.6262C31.9546 18.4361 32.4792 19.5494 31.6038 20.369C30.9041 21.0242 29.893 20.9217 29.0013 20.8265C28.7505 20.799 28.3609 20.7595 28.128 20.7673C28.1086 21.003 28.1754 21.4348 28.2133 21.6918C28.331 22.4506 28.4612 23.3106 27.8137 23.9169C27.21 24.4821 26.3378 24.3994 25.4111 24.3153C25.1409 24.2909 24.739 24.2544 24.468 24.2616C24.4527 24.4856 24.4655 24.7957 24.4699 25.0092C24.4968 25.943 24.5196 27.001 23.7918 27.6824C23.0962 28.3336 22.1663 28.2222 21.4143 28.1316C20.8819 28.0681 20.3305 27.9999 20.1107 28.2057C19.9347 28.3705 19.9784 28.8015 20.0554 29.3966C20.1571 30.0744 20.2839 31.0271 19.5802 31.6859Z" fill="#F9AF38"/>
<path d="M33.8661 33.8118C28.1214 39.1902 21.4678 41.1622 20.1289 41.3667C18.8637 41.5542 17.7116 41.3734 16.8001 40.8405C15.7594 40.2334 15.0777 39.1849 14.8846 37.8895C14.6499 36.3325 15.1984 34.7548 16.3497 33.6769C17.0572 33.0145 17.9351 32.5896 18.8969 32.4385C19.099 32.4063 24.0728 31.5725 28.0986 27.8034C30.4692 25.5838 32.0381 22.7806 32.7609 19.4735C32.971 18.5202 33.4526 17.6644 34.1643 16.998C35.316 15.9198 36.9221 15.4724 38.4602 15.809C39.7331 16.0864 40.722 16.7498 41.3169 17.7218C41.8933 18.6663 42.0554 19.8331 41.7775 21.0983C40.4884 26.9668 37.2159 30.6755 33.8661 33.8118Z" fill="#F4A360"/>
<path d="M34.6324 34.6379C27.8521 40.9859 20.3562 42.4694 20.2814 42.4836C18.7702 42.7113 17.3644 42.4809 16.2265 41.8143C14.8827 41.0248 14.0086 39.6906 13.7656 38.0573C13.4755 36.1348 14.152 34.1914 15.5757 32.8584C16.4504 32.0395 17.5321 31.5112 18.7034 31.3308C18.7457 31.3254 23.5393 30.5288 27.3239 26.9856C29.522 24.9275 30.9788 22.32 31.6544 19.2345C31.9117 18.0582 32.511 17.0021 33.3893 16.1799C34.813 14.8469 36.7967 14.2997 38.6953 14.7156C40.275 15.0586 41.5111 15.8969 42.2695 17.1398C43.002 18.3403 43.2093 19.7935 42.8693 21.3423C41.5254 27.508 38.1162 31.3762 34.6324 34.6379ZM17.1122 34.4988C16.2339 35.321 15.8109 36.5275 15.9805 37.7261C16.2629 39.6137 17.784 40.5835 19.9504 40.2595C20.0153 40.2494 26.8797 38.8103 33.0885 32.9973C36.3048 29.9861 39.4485 26.4322 40.6675 20.8633C40.8873 19.8641 40.7665 18.965 40.3171 18.2643C39.8822 17.5862 39.1543 17.1201 38.2109 16.9149C37.0328 16.6593 35.8035 16.999 34.9218 17.8245C34.3763 18.3353 34.0043 18.9898 33.8462 19.7176C33.0737 23.2541 31.3947 26.2531 28.8565 28.6295C24.6964 32.5243 19.6203 33.4605 19.0551 33.5546C18.328 33.6641 17.6545 33.991 17.1122 34.4988Z" fill="#4C2F1B"/>
<path d="M24.8597 37.3496C24.7437 37.4583 24.5827 37.5189 24.4133 37.4981C24.105 37.4647 23.8813 37.1864 23.9189 36.8738C24.1004 35.2723 22.7991 34.4516 22.7459 34.4193C22.48 34.2555 22.3987 33.9122 22.5588 33.6427C22.7226 33.377 23.0627 33.2912 23.3318 33.4507C23.4154 33.5 25.309 34.6653 25.0412 36.9996C25.0178 37.1418 24.9555 37.26 24.8597 37.3496ZM32.5401 32.1078C32.4683 32.1751 32.3777 32.2224 32.2759 32.25C31.9714 32.3175 31.6721 32.1258 31.6052 31.8217C31.2523 30.2031 29.8469 30.0722 29.8355 30.0678C29.5266 30.0421 29.2955 29.7714 29.3215 29.4625C29.3471 29.1533 29.6183 28.9223 29.9272 28.948C30.6994 29.0118 32.2821 29.6439 32.7052 31.5786C32.7485 31.7773 32.68 31.9768 32.5401 32.1078Z" fill="#4C2F1B"/>
<path d="M38.3708 24.5053C38.3066 24.5654 38.2277 24.609 38.1415 24.6371C37.8408 24.7241 37.5329 24.5477 37.4458 24.2467C37.0372 22.8006 35.4749 22.831 35.4093 22.8326C35.0994 22.8381 34.84 22.6012 34.8269 22.2907C34.8139 21.9808 35.0589 21.7212 35.3691 21.7082C36.238 21.6742 38.0131 22.0959 38.5323 23.9406C38.5877 24.1517 38.5187 24.3668 38.3708 24.5053Z" fill="#4C2F1B"/>
<path d="M39.6893 9.2462C39.5855 9.34336 39.4552 9.41282 39.3148 9.44698L37.9253 9.77373C37.4995 9.87198 37.0704 9.62234 36.9489 9.20372L36.5638 7.87043C36.477 7.56976 36.5649 7.25474 36.7928 7.04139C37.0568 6.79423 37.4456 6.74505 37.7572 6.92531L39.5324 7.93187C39.7607 8.06325 39.9118 8.28857 39.9455 8.54947C39.975 8.8065 39.8811 9.06666 39.6893 9.2462Z" fill="#FF6C4A"/>
<path d="M37.1736 7.44895C37.2497 7.37772 37.3664 7.3506 37.4768 7.41226L39.2517 8.41847C39.415 8.51276 39.4236 8.72224 39.3037 8.8345C39.2718 8.86437 39.2324 8.88618 39.1857 8.90029L37.7962 9.22704C37.6597 9.25759 37.5268 9.17957 37.4883 9.05063L37.1031 7.70952C37.0752 7.60809 37.1056 7.51262 37.1736 7.44895ZM36.4033 6.62616C36.0194 6.98557 35.8739 7.51881 36.0157 8.02299L36.4012 9.35595C36.6061 10.0632 37.3314 10.4859 38.0496 10.3156L39.4391 9.98885C39.6771 9.93103 39.8941 9.81785 40.0701 9.65308C40.3902 9.35341 40.5521 8.90935 40.4966 8.47419C40.4451 8.04256 40.1831 7.65096 39.8031 7.43688L38.0278 6.43032C37.5038 6.13481 36.8471 6.21062 36.4033 6.62616Z" fill="#4C2F1B"/>
<path d="M7.81339 36.9466C7.62162 37.1261 7.35585 37.2027 7.09773 37.1519C6.83996 37.1007 6.62867 36.939 6.50864 36.6991L5.62104 34.8614C5.46551 34.5351 5.53631 34.1539 5.80415 33.9032C6.03203 33.6898 6.35183 33.6224 6.64647 33.7291L7.95154 34.2012C8.36058 34.3499 8.58245 34.7949 8.45608 35.213L8.03864 36.5779C7.99505 36.7239 7.91751 36.8491 7.81339 36.9466Z" fill="#FF6C4A"/>
<path d="M6.18871 34.3225C6.25672 34.2588 6.35037 34.231 6.45371 34.269L7.75843 34.7413C7.88456 34.7882 7.95727 34.9298 7.9142 35.0602L7.49676 36.4251C7.47994 36.4711 7.45525 36.5087 7.42335 36.5386C7.30345 36.6508 7.09498 36.6284 7.01164 36.4593L6.12405 34.6217C6.07755 34.5088 6.11263 34.3937 6.18871 34.3225ZM5.41838 33.4997C4.97454 33.9153 4.84822 34.566 5.11616 35.1164L6.00376 36.954C6.19598 37.3511 6.56589 37.6345 6.9932 37.7143C7.4283 37.7946 7.87786 37.6656 8.19759 37.3662C8.37358 37.2015 8.50463 36.9894 8.57414 36.7587L8.99159 35.3937C9.20839 34.6879 8.83508 33.9364 8.13827 33.6889L6.83355 33.2166C6.34391 33.0302 5.80227 33.1403 5.41838 33.4997Z" fill="#4C2F1B"/>
</g>
<defs>
<clipPath id="clip0_1_14628">
<rect width="44.9726" height="25.6986" fill="white" transform="translate(0.611328 31.2861) rotate(-43.1142)"/>
</clipPath>
</defs>
</svg>
